<mxfile host="app.diagrams.net" agent="Mozilla/5.0 (Windows NT 10.0; Win64; x64) AppleWebKit/537.36 (KHTML, like Gecko) Chrome/128.0.0.0 Safari/537.36" version="27.0.5">
  <diagram name="第 1 页" id="I1ErNXHB0BoW2DpfOcAM">
    <mxGraphModel dx="1426" dy="777" grid="1" gridSize="10" guides="1" tooltips="1" connect="1" arrows="1" fold="1" page="1" pageScale="1" pageWidth="827" pageHeight="1169" math="0" shadow="0">
      <root>
        <mxCell id="0" />
        <mxCell id="1" parent="0" />
        <mxCell id="AwYpqpUh4EfOczfZwocW-6" value="专题（&lt;span style=&quot;font-family: 微软雅黑; text-align: start; white-space-collapse: preserve;&quot;&gt;thematic&lt;/span&gt;）" style="swimlane;childLayout=stackLayout;horizontal=1;startSize=50;horizontalStack=0;rounded=1;fontSize=14;fontStyle=0;strokeWidth=2;resizeParent=0;resizeLast=1;shadow=0;dashed=0;align=center;arcSize=4;whiteSpace=wrap;html=1;" vertex="1" parent="1">
          <mxGeometry x="90" y="100" width="340" height="180" as="geometry" />
        </mxCell>
        <mxCell id="AwYpqpUh4EfOczfZwocW-7" value="+ id - 专题主键 - bigint&lt;br&gt;+ name - 专题名称 - varchar&lt;br&gt;+ code - 专题编码 - varchar" style="align=left;strokeColor=none;fillColor=none;spacingLeft=4;spacingRight=4;fontSize=12;verticalAlign=top;resizable=0;rotatable=0;part=1;html=1;whiteSpace=wrap;" vertex="1" parent="AwYpqpUh4EfOczfZwocW-6">
          <mxGeometry y="50" width="340" height="130" as="geometry" />
        </mxCell>
        <mxCell id="AwYpqpUh4EfOczfZwocW-9" value="标签（&lt;span style=&quot;font-family: 微软雅黑; text-align: start; white-space-collapse: preserve;&quot;&gt;label&lt;/span&gt;）" style="swimlane;childLayout=stackLayout;horizontal=1;startSize=50;horizontalStack=0;rounded=1;fontSize=14;fontStyle=0;strokeWidth=2;resizeParent=0;resizeLast=1;shadow=0;dashed=0;align=center;arcSize=4;whiteSpace=wrap;html=1;" vertex="1" parent="1">
          <mxGeometry x="1070" y="220" width="340" height="180" as="geometry" />
        </mxCell>
        <mxCell id="AwYpqpUh4EfOczfZwocW-10" value="+ id - 标签主键 - bigint&lt;br&gt;+ name - 标签名称 - varchar&lt;br&gt;+ code - 标签编码 - varchar&lt;div&gt;+&amp;nbsp;&lt;/div&gt;" style="align=left;strokeColor=none;fillColor=none;spacingLeft=4;spacingRight=4;fontSize=12;verticalAlign=top;resizable=0;rotatable=0;part=1;html=1;whiteSpace=wrap;" vertex="1" parent="AwYpqpUh4EfOczfZwocW-9">
          <mxGeometry y="50" width="340" height="130" as="geometry" />
        </mxCell>
        <mxCell id="AwYpqpUh4EfOczfZwocW-11" value="标签-文章表（&lt;span style=&quot;font-family: 微软雅黑; text-align: start; white-space-collapse: preserve;&quot;&gt;Tags-Article Tables&lt;/span&gt;）" style="swimlane;childLayout=stackLayout;horizontal=1;startSize=50;horizontalStack=0;rounded=1;fontSize=14;fontStyle=0;strokeWidth=2;resizeParent=0;resizeLast=1;shadow=0;dashed=0;align=center;arcSize=4;whiteSpace=wrap;html=1;" vertex="1" parent="1">
          <mxGeometry x="590" y="350" width="340" height="180" as="geometry" />
        </mxCell>
        <mxCell id="AwYpqpUh4EfOczfZwocW-12" value="+ id - 关联表主键 - bigint&lt;div&gt;+ &lt;font face=&quot;微软雅黑&quot;&gt;&lt;span style=&quot;font-size: 14px; white-space-collapse: preserve;&quot;&gt;article&lt;/span&gt;&lt;/font&gt;_id - 专题id - bigint&lt;/div&gt;&lt;div&gt;+ label_id - 标签id - bigint&lt;/div&gt;&lt;div&gt;+ default_label_id - 默认标签 id - bigint&lt;/div&gt;" style="align=left;strokeColor=none;fillColor=none;spacingLeft=4;spacingRight=4;fontSize=12;verticalAlign=top;resizable=0;rotatable=0;part=1;html=1;whiteSpace=wrap;" vertex="1" parent="AwYpqpUh4EfOczfZwocW-11">
          <mxGeometry y="50" width="340" height="130" as="geometry" />
        </mxCell>
        <mxCell id="AwYpqpUh4EfOczfZwocW-13" value="默认标签（&lt;span style=&quot;font-family: 微软雅黑; text-align: start; white-space-collapse: preserve;&quot;&gt;default_&lt;/span&gt;&lt;span style=&quot;font-family: 微软雅黑; text-align: start; white-space-collapse: preserve;&quot;&gt;label&lt;/span&gt;）" style="swimlane;childLayout=stackLayout;horizontal=1;startSize=50;horizontalStack=0;rounded=1;fontSize=14;fontStyle=0;strokeWidth=2;resizeParent=0;resizeLast=1;shadow=0;dashed=0;align=center;arcSize=4;whiteSpace=wrap;html=1;" vertex="1" parent="1">
          <mxGeometry x="1070" y="450" width="340" height="180" as="geometry" />
        </mxCell>
        <mxCell id="AwYpqpUh4EfOczfZwocW-14" value="+ id - 标签主键 - bigint&lt;br&gt;+ name - 标签名称 - varchar&lt;br&gt;+ code - 标签编码 - varchar&lt;div&gt;+&amp;nbsp;&lt;/div&gt;" style="align=left;strokeColor=none;fillColor=none;spacingLeft=4;spacingRight=4;fontSize=12;verticalAlign=top;resizable=0;rotatable=0;part=1;html=1;whiteSpace=wrap;" vertex="1" parent="AwYpqpUh4EfOczfZwocW-13">
          <mxGeometry y="50" width="340" height="130" as="geometry" />
        </mxCell>
        <mxCell id="AwYpqpUh4EfOczfZwocW-15" value="文章（&lt;span style=&quot;font-family: 微软雅黑; text-align: start; white-space-collapse: preserve;&quot;&gt;article&lt;/span&gt;）" style="swimlane;childLayout=stackLayout;horizontal=1;startSize=50;horizontalStack=0;rounded=1;fontSize=14;fontStyle=0;strokeWidth=2;resizeParent=0;resizeLast=1;shadow=0;dashed=0;align=center;arcSize=4;whiteSpace=wrap;html=1;" vertex="1" parent="1">
          <mxGeometry x="100" y="380" width="340" height="180" as="geometry" />
        </mxCell>
        <mxCell id="AwYpqpUh4EfOczfZwocW-16" value="+ id - 专题主键 - bigint&lt;br&gt;+ name - 专题名称 - varchar&lt;br&gt;+ code - 专题编码 - varchar" style="align=left;strokeColor=none;fillColor=none;spacingLeft=4;spacingRight=4;fontSize=12;verticalAlign=top;resizable=0;rotatable=0;part=1;html=1;whiteSpace=wrap;" vertex="1" parent="AwYpqpUh4EfOczfZwocW-15">
          <mxGeometry y="50" width="340" height="130" as="geometry" />
        </mxCell>
      </root>
    </mxGraphModel>
  </diagram>
</mxfile>
